# xmcd
#
# Track frame offsets:
#	150
#	17440
#	35937
#	52840
#	69980
#	87262
#	99877
#	113792
#	128792
#	140807
#	160432
#	175702
#	199797
#	214067
#	228510
#
# Disc length: 3296 seconds
#
# Revision: 1
# Processed by: cddbd v1.5.2PL0 Copyright (c) Steve Scherf et al.
# Submitted via: audiograbber 1.83.01
#
DISCID=ca0cde0f
DTITLE=Music Maestro Karaoke - MM6050
DYEAR=1900
DGENRE=Karaoke
TTITLE0=John M Montgomery - Beer and Bones
TTITLE1=MC Clinton - Tucker - Tell Me About It
TTITLE2=Doug Supernaw - Reno
TTITLE3=Carlene Carter - I Fell In Love
TTITLE4=Billy Dean - Tryin' To Hide A Fire In The Dark
TTITLE5=Kelly Willis - Heaven's Just A sin Away
TTITLE6=Diamond Rio - This Romeo Ain't Got Juliet
TTITLE7=Becky Hobbs - Jones On The Jukebox
TTITLE8=Mark Chestnutt - Old Flames Have New Names
TTITLE9=Michelle Wright - Take It Like A Man
TTITLE10=Dwight Yoakam - Guitars, Cadillacs
TTITLE11=The Judds - Born To Be Blue
TTITLE12=Travis Tritt - T-R-O-U-B-L-E
TTITLE13=Reba McEntire - Little Rock
TTITLE14=Dan Seals - Love On Arrival
EXTD=
EXTT0=
EXTT1=
EXTT2=
EXTT3=
EXTT4=
EXTT5=
EXTT6=
EXTT7=
EXTT8=
EXTT9=
EXTT10=
EXTT11=
EXTT12=
EXTT13=
EXTT14=
PLAYORDER=
